<?xml version="1.0" encoding="UTF-8"?>
<svg version="1.1" viewBox="0 0 15 20" xmlns="http://www.w3.org/2000/svg">
<path d="m10.937 9.375c0.078125 0 0.14974 0.032552 0.21484 0.097656s0.097656 0.13672 0.097656 0.21484v0.625c0 0.078125-0.032552 0.14974-0.097656 0.21484-0.065104 0.065104-0.13672 0.097656-0.21484 0.097656h-4.375c-0.078125 0-0.14974-0.032552-0.21484-0.097656-0.065104-0.065104-0.097656-0.13672-0.097656-0.21484v-0.625c0-0.078125 0.032552-0.14974 0.097656-0.21484s0.13672-0.097656 0.21484-0.097656h4.375zm0 3.75c0.078125 0 0.14974 0.032552 0.21484 0.097656s0.097656 0.13672 0.097656 0.21484v0.625c0 0.078125-0.032552 0.14974-0.097656 0.21484s-0.13672 0.097656-0.21484 0.097656h-4.375c-0.078125 0-0.14974-0.032552-0.21484-0.097656s-0.097656-0.13672-0.097656-0.21484v-0.625c0-0.078125 0.032552-0.14974 0.097656-0.21484s0.13672-0.097656 0.21484-0.097656h4.375zm-6.5625-4.0625c0.26042 0 0.48177 0.091145 0.66406 0.27344s0.27344 0.40364 0.27344 0.66406c0 0.26042-0.091145 0.48177-0.27344 0.66406-0.18229 0.18229-0.40364 0.27344-0.66406 0.27344-0.26042 0-0.48177-0.091145-0.66406-0.27344-0.18229-0.18229-0.27344-0.40364-0.27344-0.66406 0-0.26042 0.091145-0.48177 0.27344-0.66406s0.40364-0.27344 0.66406-0.27344zm0 3.75c0.26042 0 0.48177 0.091145 0.66406 0.27344s0.27344 0.40364 0.27344 0.66406c0 0.26042-0.091145 0.48177-0.27344 0.66406-0.18229 0.18229-0.40364 0.27344-0.66406 0.27344-0.26042 0-0.48177-0.091145-0.66406-0.27344-0.18229-0.18229-0.27344-0.40364-0.27344-0.66406 0-0.26042 0.091145-0.48177 0.27344-0.66406s0.40364-0.27344 0.66406-0.27344zm8.75-10.312c0.52083 0 0.96354 0.18229 1.3281 0.54687 0.36458 0.36458 0.54687 0.80729 0.54687 1.3281v13.75c0 0.52083-0.18229 0.96354-0.54687 1.3281-0.36458 0.36458-0.80729 0.54687-1.3281 0.54687h-11.25c-0.52083 0-0.96354-0.18229-1.3281-0.54687-0.36458-0.36458-0.54687-0.80729-0.54687-1.3281v-13.75c0-0.52083 0.18229-0.96354 0.54687-1.3281 0.36458-0.36458 0.80729-0.54687 1.3281-0.54687h3.125c0-0.67708 0.2474-1.263 0.74219-1.7578 0.49479-0.49479 1.0807-0.74219 1.7578-0.74219s1.263 0.2474 1.7578 0.74219c0.49479 0.49479 0.74219 1.0807 0.74219 1.7578h3.125zm-5.625-0.625c-0.18229 0-0.33203 0.058594-0.44922 0.17578s-0.17578 0.26693-0.17578 0.44922 0.058594 0.33203 0.17578 0.44922 0.26693 0.17578 0.44922 0.17578 0.33203-0.058594 0.44922-0.17578 0.17578-0.26693 0.17578-0.44922-0.058594-0.33203-0.17578-0.44922-0.26693-0.17578-0.44922-0.17578zm5.625 15.937v-13.125c0-0.078125-0.032552-0.14974-0.097656-0.21484s-0.13672-0.097656-0.21484-0.097656h-1.5625v1.25c0 0.18229-0.058594 0.33203-0.17578 0.44922-0.11719 0.11719-0.26693 0.17578-0.44922 0.17578h-6.25c-0.18229 0-0.33203-0.058594-0.44922-0.17578s-0.17578-0.26693-0.17578-0.44922v-1.25h-1.5625c-0.078125 0-0.14974 0.032552-0.21484 0.097656s-0.097656 0.13672-0.097656 0.21484v13.125c0 0.078125 0.032552 0.14974 0.097656 0.21484s0.13672 0.097656 0.21484 0.097656h10.625c0.078125 0 0.14974-0.032552 0.21484-0.097656s0.097656-0.13672 0.097656-0.21484z" fill="#444"/>
</svg>
