<?xml version="1.0" encoding="utf-8" standalone="no"?>
<!-- Generator: Adobe Illustrator 24.1.3, SVG Export Plug-In . SVG Version: 6.00 Build 0)  --><svg xmlns="http://www.w3.org/2000/svg" xmlns:xlink="http://www.w3.org/1999/xlink" id="Layer_1" style="enable-background:new 0 0 54.43 41;" version="1.1" viewBox="0 0 54.43 41" x="0px" xml:space="preserve" y="0px">
<style type="text/css">
	.st0{fill:#FFFFFF;}
	.st1{fill:#B01F34;}
</style>
<polygon class="st0" points="5.15,9.02 13.17,9.01 10.56,11.7 7.86,9.98 6.83,11.12 8.7,13.84 4.61,28.72 7.38,27.35 8.85,30.91   5.32,36.58 3.82,37.24 2.81,40.51 10.59,40.51 9.95,38.12 14.92,31.32 17.08,36.75 14.74,38.11 14.11,40.51 22.83,40.51   23.34,37.84 21.01,34.15 23.89,29.96 31.04,29.95 39.48,25.78 33.13,37.06 30.66,37.76 29.92,40.51 38.33,40.51 38.69,37.62   43.25,31.13 46.43,34.72 45.36,37.16 42.65,37.75 41.61,40.51 49.77,40.51 51.63,34.91 49.02,24.46 48.99,11.06 46.32,8.81   30.36,8.83 30.36,5.06 46.32,5.05 48.99,7.18 48.98,2.26 27.41,2.28 27.43,11.8 45.88,11.78 45.88,15.56 24.08,15.59 24.07,4.08   21.58,5.43 23.35,0.49 18.68,2.19 11.82,2.19 11.58,3.41 6.55,3.41 7.66,7.1 11.72,6.47 13.02,7.61 3.67,7.62 2.96,10.34   4.47,10.37 "/>
</svg>
