<?xml version="1.0" encoding="UTF-8" standalone="no"?>
<svg width="163px" height="21px" viewBox="0 0 163 21" version="1.1" xmlns="http://www.w3.org/2000/svg" xmlns:xlink="http://www.w3.org/1999/xlink">
    <g id="Page-1" fill="#FFFFFF">
        <path d="M34.103829,3.05614167 C33.7388995,2.95085 32.4589854,2.731225 31.0493995,2.731225 C29.3681469,2.731225 25.4600679,3.34168333 25.4600679,9.00380833 L25.4600679,11.9146417 C25.4600679,17.7380583 29.7381177,18.1913083 31.0493995,18.1913083 C32.6046211,18.1913083 33.8747328,17.9346417 34.115872,17.863475 C34.2981967,17.8051417 34.6785301,17.6835167 34.6785301,17.200225 L34.6785301,15.8804333 C34.6785301,15.4811417 34.4561555,15.2431417 34.0912259,15.2431417 L34.0324115,15.2431417 C33.6204304,15.2845583 32.1934802,15.4044333 31.0860885,15.4044333 C29.3681469,15.4044333 28.5360627,14.2648917 28.5360627,11.9146417 L28.5360627,9.00380833 C28.5360627,6.6241 29.3457414,5.51780833 31.0860885,5.51780833 C32.1934802,5.51780833 33.6204304,5.6371 34.0536967,5.67530833 L34.0912259,5.67530833 C34.4561555,5.67530833 34.6785301,5.441975 34.6785301,5.04618333 L34.6785301,3.72026667 C34.6785301,3.23726667 34.2833531,3.10864167 34.103829,3.05614167" id="Fill-1"></path>
        <path d="M39.2413258,9.12076667 C39.2413258,6.65880833 40.0260784,5.55835 41.7879907,5.55835 C43.5532639,5.55835 44.3405371,6.65880833 44.3405371,9.12076667 L44.3405371,11.796225 C44.3405371,14.2648917 43.5532639,15.3650583 41.7879907,15.3650583 C40.0260784,15.3650583 39.2413258,14.2648917 39.2413258,11.796225 L39.2413258,9.12076667 Z M41.7879907,2.731225 C38.1619409,2.731225 36.1658911,5.0001 36.1658911,9.12076667 L36.1658911,11.796225 C36.1658911,15.9198083 38.1619409,18.1913083 41.7879907,18.1913083 C45.4207622,18.1913083 47.4140113,15.9198083 47.4140113,11.796225 L47.4140113,9.12076667 C47.4140113,5.0001 45.4207622,2.731225 41.7879907,2.731225 L41.7879907,2.731225 Z" id="Fill-3"></path>
        <path d="M57.3060388,15.4044042 L53.8099409,15.4044042 C52.8086952,15.4044042 52.5331076,15.0818208 52.5331076,13.9169042 L52.5331076,3.4979875 C52.5331076,3.16257083 52.2667622,2.8881125 51.9449632,2.8881125 L50.0665423,2.8881125 C49.7385818,2.8881125 49.4795182,3.16257083 49.4795182,3.4979875 L49.4795182,13.9169042 C49.4795182,17.7062375 51.9332003,18.1912792 54.0723653,18.1912792 C55.1201024,18.1912792 56.7741883,18.0504042 57.3497296,17.9086542 C57.6768498,17.8377792 57.8927828,17.7062375 57.8927828,17.2839042 L57.8927828,16.0154458 C57.8927828,15.6774042 57.6337192,15.4044042 57.3060388,15.4044042" id="Fill-5"></path>
        <path d="M62.3445593,5.576025 C62.7531796,5.54685833 63.476317,5.51798333 63.8283634,5.51798333 C65.6586125,5.51798333 66.4741727,6.10569167 66.4741727,7.4214 L66.4741727,7.59931667 C66.4741727,9.13465 65.7812826,9.68035833 63.8283634,9.68035833 C63.5622981,9.68035833 62.7680232,9.65294167 62.3445593,9.63369167 L62.3445593,5.576025 Z M67.0306692,11.746525 C68.6570284,11.0004417 69.5098376,9.56865 69.5098376,7.59931667 L69.5098376,7.4214 C69.5098376,4.39448333 67.4944631,2.73110833 63.8283634,2.73110833 C62.4775919,2.73110833 61.1083359,2.82298333 60.0687208,2.98894167 C59.7351589,3.043775 59.2848084,3.18348333 59.2848084,3.7954 L59.2848084,17.41915 C59.2848084,17.7606917 59.5497534,18.0313583 59.8709923,18.0313583 L61.7760198,18.0313583 C62.0938978,18.0313583 62.3445593,17.7627333 62.3445593,17.41915 L62.3445593,12.2817333 C62.4316607,12.2884417 62.5240833,12.2901917 62.6226675,12.2992333 C63.0248462,12.322275 63.4889201,12.35115 63.8283634,12.35115 L63.9706383,12.35115 L66.6472552,17.5191917 L66.6688204,17.5606083 C66.7643239,17.7606917 66.8945558,18.0313583 67.2163548,18.0313583 L69.5350438,18.0313583 C69.7879459,18.0313583 69.9683101,17.845275 69.9683101,17.58015 C69.9683101,17.525025 69.9683101,17.4133167 69.9050146,17.3196917 L67.0306692,11.746525 Z" id="Fill-7"></path>
        <path d="M81.8938326,2.88808333 L80.0103704,2.88808333 C79.6793292,2.88808333 79.4239065,3.149125 79.4239065,3.48045833 L79.4239065,12.3687083 C79.4239065,14.69475 78.8200784,15.4810833 77.046123,15.4810833 C75.265446,15.4810833 74.6652588,14.69475 74.6652588,12.3687083 L74.6652588,3.48045833 C74.6652588,3.149125 74.4098361,2.88808333 74.0787948,2.88808333 L72.1958928,2.88808333 C71.8656918,2.88808333 71.6055079,3.149125 71.6055079,3.48045833 L71.6055079,12.3687083 C71.6055079,16.2341667 73.4365973,18.19125 77.046123,18.19125 C80.6506076,18.19125 82.4805766,16.2341667 82.4805766,12.3687083 L82.4805766,3.48045833 C82.4805766,3.149125 82.2234735,2.88808333 81.8938326,2.88808333" id="Fill-9"></path>
        <path d="M94.4988299,2.88808333 L92.4058763,2.88808333 C92.1218866,2.88808333 91.9272388,3.13395833 91.8527405,3.341625 L89.5713007,9.24175 C89.4954021,9.440375 89.4385481,9.48995833 89.4419089,9.50483333 C89.4237045,9.48995833 89.3682509,9.43629167 89.2931924,9.24233333 L87.0123127,3.34745833 C86.9378144,3.13395833 86.7459674,2.88808333 86.4625378,2.88808333 L84.3480189,2.88808333 C84.0567474,2.88808333 83.8343729,3.10858333 83.8343729,3.39966667 C83.8343729,3.47579167 83.8587388,3.55045833 83.8898265,3.644375 L86.7624914,10.5177917 C87.0803694,11.2872083 87.445299,11.7699167 87.9026512,12.0140417 L87.9026512,17.4192083 C87.9026512,17.7627917 88.1563935,18.0314167 88.4709107,18.0314167 L90.3725773,18.0314167 C90.6912955,18.0314167 90.9439175,17.7627917 90.9439175,17.4192083 L90.9439175,12.0140417 C91.40211,11.7699167 91.7636787,11.2872083 92.0857577,10.5177917 L94.9808282,3.62716667 L94.9939914,3.59420833 C95.0124759,3.54433333 95.0340412,3.48658333 95.0340412,3.39966667 C95.0340412,3.11383333 94.7959828,2.88808333 94.4988299,2.88808333" id="Fill-11"></path>
        <path d="M105.453802,2.88808333 L96.1566407,2.88808333 C95.8289603,2.88808333 95.5682163,3.149125 95.5682163,3.48045833 L95.5682163,5.046125 C95.5682163,5.37308333 95.8227988,5.61720833 96.1566407,5.61720833 L99.275206,5.61720833 L99.275206,17.4192083 C99.275206,17.76075 99.5376304,18.0314167 99.8625101,18.0314167 L101.744572,18.0314167 C102.069732,18.0314167 102.332436,17.76075 102.332436,17.4192083 L102.332436,5.61720833 L105.453802,5.61720833 C105.787644,5.61720833 106.041386,5.37308333 106.041386,5.046125 L106.041386,3.48045833 C106.041386,3.149125 105.781763,2.88808333 105.453802,2.88808333" id="Fill-13"></path>
        <path d="M115.668105,2.98634583 C114.767684,2.87842917 113.886868,2.78742917 112.217658,2.78742917 C110.724612,2.78742917 107.246998,3.41772083 107.246998,9.24230417 L107.246998,11.6984292 C107.246998,15.8013042 109.055682,18.1527208 112.217658,18.1527208 C113.695581,18.1527208 114.561553,18.0372208 115.388876,17.9284292 L115.6499,17.8919708 C115.936131,17.8633875 116.155985,17.5997208 116.155985,17.3030958 L116.155985,10.6277208 C116.155985,10.2908458 115.930249,10.0382625 115.624414,10.0382625 L115.439009,10.0382625 C115.135694,10.0382625 114.906878,10.2908458 114.906878,10.6277208 L114.906878,16.7404708 C114.479773,16.7885958 113.584113,16.8883458 112.217658,16.8883458 C109.7819,16.8883458 108.495825,15.0954708 108.495825,11.6984292 L108.495825,9.24230417 C108.495825,4.93467917 110.521002,4.03430417 112.217658,4.03430417 C113.633686,4.03430417 114.233873,4.0978875 115.56868,4.2326375 L115.679868,4.2326375 C116.007828,4.2326375 116.174749,4.05530417 116.174749,3.72047083 L116.174749,3.5186375 C116.174749,3.30659583 116.088208,3.03972083 115.668105,2.98634583" id="Fill-15"></path>
        <path d="M120.057314,4.11541667 C120.637896,4.06904167 121.571646,4.05125 122.300945,4.05125 C125.268553,4.05125 126.424957,4.890375 126.424957,7.04258333 L126.424957,7.14204167 C126.424957,9.38233333 125.385621,10.1339583 122.300945,10.1339583 C122.016675,10.1339583 121.525434,10.1301667 121.039515,10.1275417 C120.672065,10.1217083 120.316377,10.11675 120.057314,10.11675 L120.057314,4.11541667 Z M124.410142,11.2338333 C126.638929,10.7508333 127.680505,9.440375 127.680505,7.14204167 L127.680505,7.04258333 C127.680505,4.06291667 126.069269,2.78745833 122.300945,2.78745833 C121.491546,2.78745833 119.994579,2.83208333 119.312891,2.87 C119.037024,2.90208333 118.801486,3.173625 118.801486,3.46441667 L118.801486,17.4381667 C118.801486,17.7735833 119.037024,18.0314167 119.333616,18.0314167 L119.525743,18.0314167 C119.822056,18.0314167 120.057314,17.7735833 120.057314,17.4381667 L120.057314,11.3849167 C120.536231,11.3849167 121.71364,11.3962917 122.300945,11.3962917 L123.005877,11.3962917 L127.000498,17.7706667 C127.074436,17.8698333 127.266563,18.0314167 127.453929,18.0314167 L127.70235,18.0314167 C128.001463,18.0314167 128.212075,17.8217083 128.212075,17.51925 C128.212075,17.406375 128.168664,17.2783333 128.081283,17.1260833 L124.410142,11.2338333 Z" id="Fill-17"></path>
        <path d="M134.870317,16.888375 C132.334295,16.888375 131.049059,15.1474167 131.049059,11.6984583 L131.049059,9.24233333 C131.049059,5.79833333 132.334295,4.05125 134.870317,4.05125 C137.404939,4.05125 138.694095,5.79833333 138.694095,9.24233333 L138.694095,11.6984583 C138.694095,15.1474167 137.404939,16.888375 134.870317,16.888375 M134.870317,2.78745833 C131.597154,2.78745833 129.791831,5.082 129.791831,9.24233333 L129.791831,11.6984583 C129.791831,15.857625 131.597154,18.15275 134.870317,18.15275 C138.14096,18.15275 139.940681,15.857625 139.940681,11.6984583 L139.940681,9.24233333 C139.940681,5.082 138.14096,2.78745833 134.870317,2.78745833" id="Fill-19"></path>
        <path d="M151.071089,2.88808333 L150.876721,2.88808333 C150.582369,2.88808333 150.346831,3.149125 150.346831,3.48045833 L150.346831,12.59125 C150.346831,15.5782083 149.287331,16.9105417 146.903106,16.9105417 C144.545487,16.9105417 143.442016,15.533 143.442016,12.59125 L143.442016,3.48045833 C143.442016,3.15554167 143.203398,2.88808333 142.912407,2.88808333 L142.72168,2.88808333 C142.424807,2.88808333 142.189269,3.149125 142.189269,3.48045833 L142.189269,12.59125 C142.189269,16.22775 143.818989,18.15275 146.903106,18.15275 C149.973499,18.15275 151.599858,16.22775 151.599858,12.59125 L151.599858,3.48045833 C151.599858,3.149125 151.367401,2.88808333 151.071089,2.88808333" id="Fill-21"></path>
        <path d="M157.342276,10.6101333 C156.767014,10.6101333 156.039396,10.5757167 155.474777,10.54655 L155.474777,4.040925 C155.982822,4.00825833 156.62614,3.99455 157.342276,3.99455 C160.276556,3.99455 161.472449,4.87246667 161.472449,7.02613333 L161.472449,7.36213333 C161.472449,9.67009167 160.276556,10.6101333 157.342276,10.6101333 M157.342276,2.78763333 C156.557803,2.78763333 155.496903,2.845675 154.737356,2.88796667 C154.462049,2.9218 154.227631,3.190425 154.227631,3.48063333 L154.227631,17.43805 C154.227631,17.7737583 154.462049,18.0313 154.758081,18.0313 L154.946848,18.0313 C155.246801,18.0313 155.474777,17.7737583 155.474777,17.43805 L155.474777,11.7517167 C155.865753,11.7744667 156.588331,11.8158833 157.342276,11.8158833 C160.966085,11.8158833 162.724916,10.3578417 162.724916,7.36213333 L162.724916,7.02613333 C162.724916,4.21475833 160.915953,2.78763333 157.342276,2.78763333" id="Fill-23"></path>
        <path d="M13.1752452,10.4617333 C13.1752452,12.262775 11.7721009,13.722275 10.0379153,13.722275 C8.30961117,13.722275 6.90618677,12.262775 6.90618677,10.4617333 C6.90618677,8.65835833 8.30961117,7.198275 10.0379153,7.198275 C10.4154479,7.198275 10.7770167,7.26769167 11.1080579,7.39369167 L13.9793225,0.981983333 C12.7705459,0.435108333 11.4416198,0.125941667 10.0379153,0.125941667 C4.5603311,0.125941667 0.121521821,4.7544 0.121521821,10.4617333 C0.121521821,16.1658583 4.5603311,20.7954833 10.0379153,20.7954833 C15.521661,20.7954833 19.9663517,16.1658583 19.9663517,10.4617333 C19.9663517,9.67248333 19.8742091,8.902775 19.7131696,8.16398333 L12.2664222,8.16398333 C12.8293603,8.75169167 13.1752452,9.56515 13.1752452,10.4617333" id="Fill-25"></path>
    </g>
</svg>