<?xml version="1.0" encoding="UTF-8" standalone="no"?>
<svg xmlns="http://www.w3.org/2000/svg" fill="none" height="24" viewBox="0 0 32 24" width="32">
<rect fill="white" height="24" rx="4" width="32"/>
<path d="M10.9523 20.7911V19.6105C10.9523 19.1648 10.6663 18.865 10.2111 18.8612C9.97282 18.8574 9.72211 18.9322 9.54862 19.1949C9.41851 18.9861 9.21499 18.8612 8.92568 18.8612C8.81729 18.8558 8.70935 18.8787 8.61255 18.9278C8.51575 18.9769 8.43344 19.0504 8.37375 19.141V18.9084H7.96338V20.7934H8.37756V19.7463C8.37756 19.4189 8.55916 19.2454 8.83893 19.2454C9.11108 19.2454 9.24931 19.4227 9.24931 19.742V20.7906H9.66349V19.7463C9.66349 19.4189 9.85414 19.2454 10.1249 19.2454C10.4046 19.2454 10.539 19.4227 10.539 19.742V20.7906L10.9523 20.7911ZM13.2629 19.8488V18.9065H12.8526V19.1338C12.7224 18.9642 12.5251 18.8579 12.2573 18.8579C11.7287 18.8579 11.315 19.2721 11.315 19.8478C11.315 20.4236 11.7292 20.8378 12.2573 20.8378C12.5256 20.8378 12.7224 20.7315 12.8526 20.5618V20.7906H13.2629V19.8488ZM11.7377 19.8488C11.7377 19.5175 11.9546 19.2454 12.3097 19.2454C12.649 19.2454 12.8774 19.5056 12.8774 19.8488C12.8774 20.1919 12.6486 20.4522 12.3097 20.4522C11.9537 20.4522 11.7368 20.18 11.7368 19.8488H11.7377ZM22.0385 18.8569C22.177 18.8556 22.3145 18.8813 22.4432 18.9327C22.563 18.9806 22.6723 19.0515 22.7649 19.1415C22.8561 19.2309 22.9283 19.3377 22.9774 19.4556C23.0797 19.7081 23.0797 19.9905 22.9774 20.2429C22.9283 20.3608 22.8561 20.4676 22.7649 20.557C22.6723 20.647 22.563 20.7179 22.4432 20.7658C22.1826 20.8672 21.8935 20.8672 21.6329 20.7658C21.5132 20.7181 21.4042 20.6471 21.3121 20.557C21.2215 20.4674 21.1496 20.3606 21.1005 20.2429C20.9982 19.9905 20.9982 19.7081 21.1005 19.4556C21.1496 19.3379 21.2215 19.2312 21.3121 19.1415C21.4042 19.0514 21.5132 18.9805 21.6329 18.9327C21.7618 18.8812 21.8996 18.8554 22.0385 18.8569ZM22.0385 19.2449C21.9583 19.2442 21.8788 19.2593 21.8045 19.2892C21.7344 19.3174 21.6708 19.3595 21.6176 19.4131C21.5641 19.4679 21.522 19.5327 21.4937 19.6038C21.4334 19.7615 21.4334 19.936 21.4937 20.0938C21.522 20.1649 21.5641 20.2297 21.6176 20.2844C21.6708 20.338 21.7344 20.3802 21.8045 20.4083C21.9551 20.4674 22.1224 20.4674 22.273 20.4083C22.3433 20.38 22.4071 20.3379 22.4608 20.2844C22.5148 20.2299 22.5572 20.165 22.5857 20.0938C22.646 19.936 22.646 19.7615 22.5857 19.6038C22.5572 19.5325 22.5148 19.4677 22.4608 19.4131C22.4071 19.3597 22.3433 19.3175 22.273 19.2892C22.1985 19.259 22.1188 19.2438 22.0385 19.2444V19.2449ZM15.4945 19.8488C15.4907 19.2611 15.128 18.8588 14.5994 18.8588C14.0475 18.8588 13.6609 19.2611 13.6609 19.8488C13.6609 20.4484 14.0632 20.8387 14.627 20.8387C14.913 20.8387 15.1713 20.7677 15.4001 20.5747L15.199 20.2711C15.0433 20.3959 14.8504 20.4654 14.6509 20.4684C14.3868 20.4684 14.1461 20.3464 14.087 20.007H15.4869C15.4897 19.9551 15.4945 19.9041 15.4945 19.8488ZM14.0908 19.6834C14.1342 19.4112 14.2996 19.2258 14.5918 19.2258C14.8558 19.2258 15.0255 19.3912 15.0684 19.6834H14.0908ZM17.2218 19.3879C17.0427 19.2847 16.8403 19.2289 16.6336 19.2258C16.4086 19.2258 16.2747 19.3088 16.2747 19.4465C16.2747 19.5728 16.4177 19.6081 16.594 19.6319L16.7871 19.6596C17.1975 19.7187 17.4458 19.8922 17.4458 20.2234C17.4458 20.5823 17.1302 20.8387 16.5879 20.8387C16.2804 20.8387 15.9964 20.7596 15.7714 20.5942L15.9644 20.2749C16.1454 20.4092 16.3664 20.4787 16.5917 20.4722C16.8714 20.4722 17.0206 20.3893 17.0206 20.2434C17.0206 20.1371 16.9143 20.078 16.6894 20.0461L16.4963 20.0185C16.0745 19.9594 15.8458 19.7701 15.8458 19.4622C15.8458 19.0876 16.1532 18.8588 16.6303 18.8588C16.9301 18.8588 17.2022 18.926 17.3991 19.0562L17.2218 19.3879ZM19.1926 19.2816H18.522V20.1348C18.522 20.3254 18.5892 20.4503 18.7941 20.4503C18.9221 20.4461 19.0469 20.4095 19.1568 20.344L19.275 20.6948C19.1212 20.7907 18.9435 20.8412 18.7622 20.8406C18.277 20.8406 18.1078 20.5804 18.1078 20.1424V19.2845H17.7265V18.9098H18.1078V18.3379H18.522V18.9098H19.1921L19.1926 19.2816ZM20.612 18.8598C20.7114 18.8603 20.8101 18.8777 20.9037 18.9113L20.7774 19.2978C20.6959 19.2652 20.6087 19.249 20.5209 19.2501C20.2526 19.2501 20.1187 19.4236 20.1187 19.7353V20.792H19.7088V18.9065H20.1129V19.1338C20.1632 19.0474 20.2359 18.9762 20.3233 18.9276C20.4107 18.879 20.5096 18.8549 20.6096 18.8579L20.612 18.8598Z" fill="black"/>
<path d="M18.6091 4.52002H12.3892V15.6973H18.6091V4.52002Z" fill="#7673C0"/>
<path d="M12.7843 10.1086C12.7835 9.03194 13.0276 7.96924 13.4983 7.00094C13.969 6.03264 14.6539 5.18415 15.501 4.51971C14.4524 3.69549 13.193 3.18292 11.8669 3.04059C10.5407 2.89826 9.20124 3.13192 8.00159 3.71486C6.80194 4.2978 5.7905 5.2065 5.08288 6.33709C4.37526 7.46769 4 8.77456 4 10.1083C4 11.4421 4.37526 12.749 5.08288 13.8796C5.7905 15.0102 6.80194 15.9189 8.00159 16.5018C9.20124 17.0848 10.5407 17.3184 11.8669 17.1761C13.193 17.0338 14.4524 16.5212 15.501 15.697C14.6539 15.0326 13.9691 14.1842 13.4984 13.216C13.0277 12.2477 12.7835 11.1851 12.7843 10.1086Z" fill="#EB001B"/>
<path d="M26.9999 10.1085C26.9999 11.4423 26.6247 12.7491 25.9171 13.8797C25.2095 15.0103 24.1981 15.9191 22.9985 16.502C21.7988 17.085 20.4594 17.3187 19.1332 17.1764C17.807 17.0341 16.5477 16.5215 15.499 15.6973C16.3451 15.0321 17.0291 14.1834 17.4994 13.2153C17.9697 12.2472 18.2141 11.185 18.2141 10.1087C18.2141 9.03243 17.9697 7.97019 17.4994 7.0021C17.0291 6.03401 16.3451 5.18534 15.499 4.52009C16.5476 3.69592 17.807 3.18339 19.1331 3.04107C20.4592 2.89876 21.7986 3.13241 22.9982 3.71531C24.1979 4.29822 25.2093 5.20686 25.9169 6.3374C26.6245 7.46793 26.9998 8.77474 26.9999 10.1085Z" fill="#00A1DF"/>
</svg>
