<?xml version="1.0" encoding="UTF-8" standalone="no"?>
<svg xmlns="http://www.w3.org/2000/svg" fill="none" height="24" viewBox="0 0 32 24" width="32">
<rect fill="white" height="24" rx="4" width="32"/>
<path d="M26.5441 20.6489V20.6949H26.587C26.595 20.695 26.603 20.693 26.61 20.6891C26.6128 20.6871 26.615 20.6844 26.6165 20.6814C26.618 20.6783 26.6187 20.6749 26.6186 20.6715C26.6187 20.6681 26.618 20.6648 26.6165 20.6618C26.615 20.6588 26.6127 20.6562 26.61 20.6543C26.603 20.6502 26.595 20.6481 26.587 20.6485H26.5441V20.6489ZM26.5874 20.6164C26.6058 20.6153 26.624 20.6205 26.6389 20.6313C26.6449 20.6362 26.6497 20.6425 26.6528 20.6495C26.6559 20.6566 26.6574 20.6643 26.657 20.672C26.6573 20.6787 26.6561 20.6853 26.6536 20.6915C26.6511 20.6977 26.6473 20.7032 26.6425 20.7078C26.631 20.7178 26.6166 20.7238 26.6013 20.7249L26.6588 20.7905H26.6146L26.5617 20.7254H26.5445V20.7905H26.5075V20.6165H26.588L26.5874 20.6164ZM26.5759 20.8505C26.5954 20.8507 26.6146 20.8468 26.6324 20.839C26.6496 20.8316 26.6652 20.821 26.6784 20.8078C26.6916 20.7946 26.7022 20.779 26.7095 20.7618C26.7246 20.7254 26.7246 20.6844 26.7095 20.648C26.7021 20.6309 26.6915 20.6153 26.6784 20.602C26.6652 20.5888 26.6495 20.5782 26.6324 20.5708C26.6145 20.5635 26.5953 20.5598 26.5759 20.56C26.5562 20.5599 26.5367 20.5635 26.5184 20.5708C26.5009 20.5781 26.4849 20.5887 26.4714 20.602C26.4511 20.6229 26.4373 20.6493 26.4319 20.6779C26.4264 20.7065 26.4295 20.7361 26.4407 20.763C26.4477 20.7802 26.4582 20.7959 26.4714 20.809C26.4849 20.8223 26.5009 20.8329 26.5184 20.8401C26.5366 20.8479 26.5562 20.8518 26.5759 20.8516V20.8505ZM26.5759 20.5182C26.6265 20.5181 26.675 20.538 26.711 20.5734C26.7284 20.5904 26.7423 20.6107 26.7517 20.6331C26.7616 20.656 26.7666 20.6808 26.7666 20.7058C26.7666 20.7308 26.7616 20.7555 26.7517 20.7785C26.742 20.8008 26.7282 20.821 26.711 20.8382C26.6934 20.8551 26.6729 20.8687 26.6504 20.8784C26.6269 20.8884 26.6015 20.8935 26.5759 20.8934C26.55 20.8936 26.5244 20.8885 26.5005 20.8784C26.4778 20.869 26.4571 20.8553 26.4394 20.8382C26.4223 20.8204 26.4086 20.7995 26.3993 20.7766C26.3895 20.7536 26.3844 20.7288 26.3844 20.7038C26.3844 20.6788 26.3895 20.6541 26.3993 20.6311C26.4088 20.6087 26.4226 20.5884 26.44 20.5714C26.4574 20.554 26.4782 20.5403 26.5011 20.5312C26.5249 20.5211 26.5506 20.516 26.5765 20.5162L26.5759 20.5182ZM8.96934 19.8463C8.96934 19.5146 9.18667 19.2421 9.54186 19.2421C9.88129 19.2421 10.1103 19.5029 10.1103 19.8463C10.1103 20.1898 9.88129 20.4506 9.54186 20.4506C9.18667 20.4506 8.96934 20.1781 8.96934 19.8463ZM10.4973 19.8463V18.9023H10.0869V19.1323C9.95672 18.9623 9.75929 18.8557 9.4908 18.8557C8.96187 18.8557 8.54677 19.2706 8.54677 19.8468C8.54677 20.423 8.96164 20.8378 9.4908 20.8378C9.75918 20.8378 9.95672 20.7311 10.0869 20.5613V20.7905H10.4968V19.8463H10.4973ZM24.3636 19.8463C24.3636 19.5146 24.5809 19.2421 24.9362 19.2421C25.276 19.2421 25.5047 19.5029 25.5047 19.8463C25.5047 20.1898 25.276 20.4506 24.9362 20.4506C24.581 20.4506 24.3636 20.1781 24.3636 19.8463ZM25.892 19.8463V18.1445H25.4813V19.1323C25.3511 18.9623 25.1537 18.8557 24.8852 18.8557C24.3563 18.8557 23.9412 19.2706 23.9412 19.8468C23.9412 20.423 24.356 20.8378 24.8852 20.8378C25.1537 20.8378 25.3511 20.7311 25.4813 20.5613V20.7905H25.892V19.8463ZM15.5907 19.2226C15.8551 19.2226 16.025 19.3884 16.0683 19.6804H15.0891C15.1329 19.4079 15.2984 19.2226 15.5908 19.2226H15.5907ZM15.599 18.8547C15.0459 18.8547 14.6589 19.2571 14.6589 19.8457C14.6589 20.4459 15.0614 20.8368 15.6264 20.8368C15.9107 20.8368 16.171 20.7659 16.4001 20.5723L16.1989 20.2682C16.0407 20.3947 15.8393 20.4656 15.6499 20.4656C15.3854 20.4656 15.1446 20.3432 15.0854 20.0034H16.4868C16.4908 19.9523 16.4949 19.9008 16.4949 19.8456C16.4908 19.2572 16.127 18.8546 15.5987 18.8546L15.599 18.8547ZM20.5534 19.8456C20.5534 19.5139 20.7708 19.2414 21.126 19.2414C21.4654 19.2414 21.6945 19.5022 21.6945 19.8456C21.6945 20.1891 21.4654 20.4499 21.126 20.4499C20.7708 20.4499 20.5533 20.1774 20.5533 19.8456H20.5534ZM22.0813 19.8456V18.9023H21.6711V19.1323C21.5405 18.9623 21.3435 18.8557 21.075 18.8557C20.5461 18.8557 20.131 19.2706 20.131 19.8468C20.131 20.423 20.5459 20.8378 21.075 20.8378C21.3435 20.8378 21.5405 20.7311 21.6711 20.5613V20.7905H22.0814V19.8463L22.0813 19.8456ZM18.2359 19.8456C18.2359 20.4181 18.6345 20.8367 19.2427 20.8367C19.527 20.8367 19.7164 20.7735 19.9211 20.6117L19.7241 20.2799C19.57 20.3907 19.4082 20.4499 19.2296 20.4499C18.902 20.4459 18.6611 20.209 18.6611 19.8456C18.6611 19.4823 18.902 19.2455 19.2296 19.2414C19.4077 19.2414 19.5695 19.3006 19.7241 19.4113L19.9211 19.0796C19.716 18.9178 19.5266 18.8546 19.2427 18.8546C18.6345 18.8546 18.2359 19.273 18.2359 19.8456ZM23.5264 18.8546C23.2896 18.8546 23.1355 18.9653 23.0289 19.1311V18.9023H22.6222V20.7894H23.033V19.7316C23.033 19.4193 23.1672 19.2458 23.4354 19.2458C23.5233 19.2445 23.6105 19.2606 23.6921 19.2932L23.8186 18.9064C23.7277 18.8707 23.6093 18.8549 23.5262 18.8549L23.5264 18.8546ZM12.5262 19.0523C12.3288 18.9222 12.0567 18.8549 11.7566 18.8549C11.2785 18.8549 10.9707 19.0841 10.9707 19.459C10.9707 19.7668 11.1998 19.9566 11.6218 20.0158L11.8157 20.0434C12.0407 20.075 12.147 20.1342 12.147 20.2408C12.147 20.3868 11.9975 20.47 11.7168 20.47C11.4326 20.47 11.2274 20.3792 11.0891 20.2726L10.8963 20.5926C11.1213 20.7584 11.4055 20.8375 11.7134 20.8375C12.2584 20.8375 12.5743 20.5809 12.5743 20.2215C12.5743 19.8898 12.3257 19.7163 11.9149 19.6571L11.7215 19.629C11.5439 19.606 11.4015 19.5702 11.4015 19.4438C11.4015 19.3058 11.5357 19.2228 11.7608 19.2228C12.0017 19.2228 12.2349 19.3136 12.3492 19.3845L12.5269 19.0528L12.5262 19.0523ZM17.8214 18.8553C17.5846 18.8553 17.4304 18.966 17.3243 19.1318V18.9023H16.9176V20.7894H17.328V19.7316C17.328 19.4193 17.4622 19.2458 17.7304 19.2458C17.8183 19.2445 17.9055 19.2606 17.9871 19.2932L18.1136 18.9064C18.0227 18.8707 17.9043 18.8549 17.8212 18.8549L17.8214 18.8553ZM14.3194 18.9023H13.6483V18.3298H13.2335V18.9023H12.8507V19.2774H13.2335V20.1383C13.2335 20.5761 13.4034 20.8369 13.8889 20.8369C14.067 20.8369 14.2721 20.7817 14.4023 20.691L14.2837 20.3396C14.1613 20.4106 14.0271 20.4463 13.9204 20.4463C13.7153 20.4463 13.6483 20.3198 13.6483 20.1305V19.2777H14.3194V18.9023ZM8.18388 20.7899V19.6055C8.18388 19.1595 7.89963 18.8594 7.44142 18.8554C7.20052 18.8513 6.95204 18.9263 6.77806 19.1911C6.6479 18.9819 6.44277 18.8554 6.15438 18.8554C5.95281 18.8554 5.75584 18.9146 5.60165 19.1356V18.9023H5.19092V20.7894H5.60487V19.7431C5.60487 19.4155 5.78654 19.2414 6.06711 19.2414C6.33962 19.2414 6.47749 19.419 6.47749 19.7389V20.7892H6.89236V19.7428C6.89236 19.4152 7.08174 19.2412 7.35414 19.2412C7.63436 19.2412 7.76809 19.4188 7.76809 19.7387V20.789L8.18388 20.7899Z" fill="#231F20"/>
<path d="M26.7782 14.5128V14.2368H26.7063L26.6232 14.4262L26.5405 14.2368H26.4684V14.5128H26.5194V14.3049L26.5972 14.4843H26.6501L26.7278 14.3044V14.5128H26.7784H26.7782ZM26.3222 14.5128V14.2841H26.4142V14.2375H26.1792V14.2841H26.2712V14.5128H26.3218H26.3222Z" fill="#F79410"/>
<path d="M18.6097 15.6961H12.3906V4.51953H18.6099L18.6097 15.6961Z" fill="#FF5F00"/>
<path d="M12.7849 10.1081C12.7849 7.8409 13.8465 5.8213 15.4995 4.51977C14.2482 3.53314 12.7006 2.99765 11.1071 3.00001C7.18188 3.00001 4 6.18235 4 10.1081C4 14.0338 7.18188 17.2161 11.1071 17.2161C12.7006 17.2185 14.2483 16.683 15.4996 15.6964C13.8467 14.3951 12.7849 12.3754 12.7849 10.1081Z" fill="#EB001B"/>
<path d="M27.0002 10.1081C27.0002 14.0338 23.8183 17.2161 19.893 17.2161C18.2994 17.2185 16.7515 16.683 15.5 15.6964C17.1535 14.3949 18.215 12.3754 18.215 10.1081C18.215 7.84079 17.1535 5.8213 15.5 4.51977C16.7515 3.53317 18.2993 2.99769 19.8929 3.00001C23.8182 3.00001 27.0001 6.18235 27.0001 10.1081" fill="#F79E1B"/>
</svg>
