<?xml version="1.0" encoding="UTF-8" standalone="no"?>
<svg xmlns="http://www.w3.org/2000/svg" fill="none" height="24" viewBox="0 0 36 24" width="36">
<rect fill="white" height="24" rx="4" width="36"/>
<path d="M13.5975 16.062L15.1147 7.18155H17.5415L16.0232 16.062H13.5975ZM24.791 7.37298C24.3103 7.19307 23.5568 7 22.616 7C20.2179 7 18.5289 8.20445 18.5144 9.93068C18.5009 11.2067 19.7204 11.9186 20.6409 12.3434C21.5856 12.7788 21.9031 13.0563 21.8985 13.4449C21.8925 14.0402 21.1442 14.3121 20.4466 14.3121C19.4753 14.3121 18.9593 14.1775 18.1623 13.846L17.8495 13.7049L17.5089 15.6928C18.0758 15.9408 19.1239 16.1555 20.2123 16.1667C22.7633 16.1667 24.4194 14.976 24.4382 13.1325C24.4473 12.1223 23.8007 11.3536 22.4006 10.7197C21.5524 10.3089 21.0329 10.0347 21.0384 9.61876C21.0384 9.24964 21.4781 8.85493 22.4283 8.85493C23.2218 8.84263 23.7967 9.01524 24.2446 9.19516L24.4621 9.29763L24.791 7.37298ZM31.036 7.18141H29.1608C28.5799 7.18141 28.1451 7.33955 27.8901 7.91785L24.2859 16.0561H26.8343C26.8343 16.0561 27.2508 14.9619 27.3451 14.7216C27.6235 14.7216 30.0992 14.7254 30.4531 14.7254C30.5257 15.0363 30.7483 16.0561 30.7483 16.0561H33.0002L31.036 7.18114V7.18141ZM28.0608 12.9159C28.2615 12.4042 29.0277 10.4334 29.0277 10.4334C29.0134 10.457 29.2269 9.91921 29.3494 9.58578L29.5134 10.3514C29.5134 10.3514 29.9781 12.4712 30.0753 12.9157H28.0608V12.9159ZM11.5374 7.18141L9.16145 13.2375L8.90835 12.0068C8.466 10.5881 7.08796 9.05103 5.54736 8.28153L7.71987 16.0478L10.2875 16.045L14.1082 7.18132L11.5374 7.18127" fill="#0E4595"/>
<path d="M6.94429 7.18115H3.03102L3 7.36592C6.04448 8.10099 8.0589 9.8774 8.8953 12.0121L8.04439 7.93115C7.89753 7.36882 7.47146 7.20098 6.94438 7.18138" fill="#F2AE14"/>
</svg>
