<svg width="50" height="64" xmlns="http://www.w3.org/2000/svg"><defs><linearGradient x1="25.703%" y1="66.748%" x2="95.866%" y2="36.535%" id="a"><stop stop-color="#90B117" offset="41.3%"/><stop stop-color="#8BAF19" offset="50.1%"/><stop stop-color="#7DAB1E" offset="60.1%"/><stop stop-color="#67A325" offset="70.6%"/><stop stop-color="#479830" offset="81.5%"/><stop stop-color="#1F8A3E" offset="92.5%"/><stop stop-color="#007F48" offset="100%"/></linearGradient><linearGradient x1="46.95%" y1="72.853%" x2="57.742%" y2="23.537%" id="b"><stop stop-color="#36BCEE" offset="0%"/><stop stop-color="#31ACE3" offset="20.1%"/><stop stop-color="#2583C5" offset="59%"/><stop stop-color="#1652A1" offset="100%"/></linearGradient><linearGradient x1="64.329%" y1="82.919%" x2="42.534%" y2="10.445%" id="c"><stop stop-color="#E42313" offset="0%"/><stop stop-color="#E73611" offset="7.1%"/><stop stop-color="#F0710B" offset="31.2%"/><stop stop-color="#F6A006" offset="53.4%"/><stop stop-color="#FBC103" offset="73%"/><stop stop-color="#FED601" offset="89.1%"/><stop stop-color="#FD0" offset="99.9%"/></linearGradient><linearGradient x1="71.579%" y1="32.649%" x2="14.839%" y2="64.22%" id="d"><stop stop-color="#FFC832" offset="0%"/><stop stop-color="#F8A220" offset="35.4%"/><stop stop-color="#F07A0D" offset="77.9%"/><stop stop-color="#ED6B06" offset="100%"/></linearGradient><linearGradient x1="71.58%" y1="32.641%" x2="14.839%" y2="64.212%" id="e"><stop stop-color="#F3C636" stop-opacity="0" offset="46.1%"/><stop stop-color="#F1A223" stop-opacity=".342" offset="64.5%"/><stop stop-color="#EE7A0E" stop-opacity=".775" offset="87.9%"/><stop stop-color="#ED6B06" offset="100%"/></linearGradient><radialGradient cx="49.972%" cy="50.01%" fx="49.972%" fy="50.01%" r="452.843%" gradientTransform="matrix(.11038 0 0 1 .445 0)" id="f"><stop stop-color="#C9C9C9" offset="0%"/><stop stop-color="#CCC" stop-opacity=".698" offset="30.2%"/><stop stop-color="#D7D7D7" stop-opacity=".446" offset="55.4%"/><stop stop-color="#E8E8E8" stop-opacity=".213" offset="78.7%"/><stop stop-color="#FFF" stop-opacity="0" offset="100%"/></radialGradient></defs><g fill-rule="nonzero" fill="none"><path d="M40.528 29.93c7.747-7.817 11.338-15.951 8.275-20.212-4.014-5.598-17.958-2.464-31.127 7.007a63.819 63.819 0 00-8.275 7.043l31.127 6.162z" fill="url(#a)"/><path d="M40.528 29.93c-1.303-3.134-2.958-6.374-4.965-9.613C26.866 6.127 15-2.43 9.155 1.162 4.613 3.944 5 13.169 9.4 23.768l31.127 6.162z" fill="url(#b)" opacity=".9"/><path d="M9.401 23.768c1.303 3.133 2.958 6.373 4.965 9.612C23.1 47.57 34.93 56.127 40.81 52.535c4.542-2.781 4.155-12.007-.247-22.605L9.401 23.768z" fill="url(#c)"/><path d="M9.401 23.768C1.62 31.62-1.972 39.754 1.091 44.014c4.015 5.599 17.958 2.465 31.127-7.007a67.584 67.584 0 008.31-7.042L9.401 23.768z" fill="url(#d)" opacity=".85"/><path d="M9.401 23.768c-7.781 7.817-11.373 15.95-8.31 20.246 4.015 5.599 17.958 2.465 31.127-7.007a67.584 67.584 0 008.31-7.042L9.401 23.768z" fill="url(#e)" opacity=".87"/><ellipse fill="url(#f)" cx="24.965" cy="61.197" rx="21.373" ry="2.359"/></g></svg>