<svg width="51" height="42" xmlns="http://www.w3.org/2000/svg">
    <path fill="#424242" d="M16.6 1.85H9.42l-.25 1.2-5.26.01 1.16 3.87 4.25-.66 1.35 1.19H.92l-.75 2.9h1.58l.72-1.42h8.38l-2.73 2.81-2.83-1.8-1.07 1.19 1.95 2.85-4.27 15.6 2.89-1.43 1.53 3.73-3.68 5.94-1.56.7L0 42h8.16l-.69-2.56 5.2-7.13 2.25 5.7-2.44 1.42-.67 2.57h9.1l.55-2.85-2.43-3.87 3-4.4h7.47l8.81-4.37-6.63 11.82-2.58.74-.78 2.93h8.8l.37-3.08 4.77-6.8 3.31 3.76-1.11 2.55-2.83.63-1.1 2.94h8.53L51 36.08l-2.72-10.95-.03-14.05-2.8-2.36-16.65.02V4.8h16.65l2.8 2.23V1.85H25.7l.02 9.98H45v3.97H22.23l-.01-12.04-2.6 1.41L21.48 0z" fill-rule="evenodd"/>
</svg>
