<svg xmlns="http://www.w3.org/2000/svg" width="81" height="43">
    <g fill="none" fill-rule="evenodd">
        <path fill="#FFFFFE" stroke="#D4D4D4" d="M70.66.2H9.7C4.7.2.64 4.25.64 9.24V34c0 5.06 4.46 9.19 9.93 9.19h1.04c1.97 0 3.8-.54 5.34-1.46h53.71c5 0 9.06-4.07 9.06-9.06V9.26c0-5-4.06-9.07-9.06-9.07z"/>
        <path fill="#DC3E2A" d="M70.66 38.49h-8.68V14.85h8.68a5.84 5.84 0 015.84 5.83v11.98a5.83 5.83 0 01-5.84 5.83z"/>
        <path fill="#FFFFFE" fill-opacity=".4" d="M72.58 21.42H65.9v10.54h6.75v-1.6h-4.72v-3.1h3.31v-1.58h-3.3V23h4.65z"/>
        <path fill="#6D6E6D" d="M8.3 6.74v3.22H7V4.32h1.02l2.63 3.32V4.32h1.3v5.64H10.9zm7.14 2.11c.23 0 .41-.05.57-.14.15-.09.27-.21.37-.37.1-.15.16-.33.2-.53.04-.2.06-.4.06-.6V4.32h1.3v2.89c0 .39-.04.75-.14 1.1-.1.33-.25.63-.45.88a2.12 2.12 0 01-.78.6c-.32.15-.7.22-1.13.22-.45 0-.83-.08-1.15-.23a2.14 2.14 0 01-.77-.61 2.52 2.52 0 01-.44-.9 4 4 0 01-.14-1.06V4.32h1.3v2.89c0 .21.02.42.07.62.04.2.1.37.2.52.1.15.22.28.37.37.15.09.34.13.56.13zm7.8-3.38h-1.71v4.5h-1.3v-4.5H18.5V4.32h4.74zm.65 4.5V4.31h2.54c.26 0 .5.06.73.17a1.95 1.95 0 01.97 1.05c.1.23.14.46.14.69a1.95 1.95 0 01-.25.96 1.72 1.72 0 01-.67.68l1.3 2.1h-1.48l-1.13-1.83h-.85v1.82h-1.3zM25.18 7h1.19c.15 0 .28-.07.4-.22a.9.9 0 00.16-.56.79.79 0 00-.19-.56c-.13-.13-.26-.2-.41-.2h-1.15V7zm4.1 2.95h1.3V4.32h-1.3zm2.27-1.6H34V7.2h-2.44zm6.8-2.38l-.18-.12a3.44 3.44 0 00-.83-.35 1.85 1.85 0 00-.5-.07c-.23 0-.4.04-.52.12a.39.39 0 00-.17.34l.08.24a.7.7 0 00.22.17c.1.05.22.1.37.14l.5.15c.27.07.52.15.73.24.22.08.4.2.56.32.15.13.27.29.35.48.08.18.12.4.12.66 0 .32-.06.59-.17.8-.12.23-.28.4-.48.54a2 2 0 01-.68.3 3.4 3.4 0 01-.79.09 4.42 4.42 0 01-1.26-.2 5.03 5.03 0 01-.6-.2 3.28 3.28 0 01-.54-.3l.57-1.14.21.15a4.07 4.07 0 001 .42c.22.06.43.09.65.09.46 0 .69-.14.69-.42a.36.36 0 00-.1-.26 1 1 0 00-.3-.19 3.03 3.03 0 00-.42-.15l-.54-.16a4.68 4.68 0 01-.67-.26 1.8 1.8 0 01-.48-.32 1.14 1.14 0 01-.28-.42 1.54 1.54 0 01-.1-.56c0-.3.06-.56.17-.79.11-.22.26-.42.46-.57.19-.16.4-.28.66-.35.25-.08.52-.12.8-.12.2 0 .4.02.58.05a4.24 4.24 0 011.04.34c.15.08.29.15.41.23l-.56 1.08zm1.17 1.12a2.94 2.94 0 01.71-1.92 2.6 2.6 0 012-.89c.51 0 .95.12 1.32.34.37.23.64.53.82.9l-1 .7a1.2 1.2 0 00-.22-.38 1.27 1.27 0 00-.3-.23 1.13 1.13 0 00-.32-.13 1.56 1.56 0 00-.33-.04 1.16 1.16 0 00-1.02.55 1.7 1.7 0 00-.25.53 2.22 2.22 0 00.02 1.26 1.43 1.43 0 00.71.92c.17.1.35.14.56.14a1.36 1.36 0 00.66-.18 1.1 1.1 0 00.5-.6l1.06.63a1.73 1.73 0 01-.37.56 2 2 0 01-.55.4 2.83 2.83 0 01-1.33.35c-.4 0-.75-.08-1.08-.25a2.75 2.75 0 01-.84-.66 3.11 3.11 0 01-.55-.94 3 3 0 01-.2-1.06zm7.9 2.91c-.4 0-.77-.08-1.1-.25a2.75 2.75 0 01-.85-.64 3 3 0 01.02-3.96 2.7 2.7 0 011.95-.87c.4 0 .77.08 1.1.25.32.16.6.38.84.65a3.03 3.03 0 01.74 1.97c0 .37-.07.73-.2 1.07a2.91 2.91 0 01-.57.91 2.75 2.75 0 01-.85.63 2.49 2.49 0 01-1.08.24zm-1.36-2.86a2 2 0 00.35 1.18c.11.16.26.28.43.38.17.1.37.14.6.14.22 0 .42-.05.59-.15.17-.1.3-.23.42-.4a1.74 1.74 0 00.26-.54 2.37 2.37 0 00-.01-1.25 1.7 1.7 0 00-.27-.54 1.3 1.3 0 00-.43-.38 1.19 1.19 0 00-.58-.14c-.22 0-.42.05-.6.15-.16.1-.3.23-.42.38-.11.16-.2.34-.25.55a2.26 2.26 0 00-.1.62zm4.82 2.81V4.32h2.54c.26 0 .51.06.73.17a1.95 1.95 0 01.97 1.05 1.81 1.81 0 01.08 1.2 1.96 1.96 0 01-.18.45 1.74 1.74 0 01-.68.68l1.3 2.1h-1.47l-1.14-1.83h-.85v1.82h-1.3zM52.18 7h1.2c.14 0 .28-.07.39-.22a.9.9 0 00.17-.56.8.8 0 00-.2-.56.55.55 0 00-.4-.2h-1.16V7zm8.06 1.8v1.15H56.3V4.32h3.9v1.15h-2.6v1.1h2.22v1.05H57.6v1.2z"/>
        <path fill="#79BB43" d="M32.91 14.85H20.25a8.6 8.6 0 011.29 4.5v14.64a8.6 8.6 0 01-1.29 4.5h12.66V14.85z"/>
        <path fill="#F9C623" d="M32.91 38.49h14.54V14.85H32.9z"/>
        <path fill="#E7792B" d="M47.45 38.49h14.53V14.85H47.45z"/>
        <path fill="#FFFFFE" fill-opacity=".4" d="M25.45 30.37v-2.98h1c1.86.01 2.46.56 2.46 1.44 0 1.08-.8 1.54-2.34 1.54h-1.12zm0-4.45v-2.91h.6c1.6 0 2.26.47 2.26 1.42 0 .87-.62 1.46-1.93 1.48l-.93.01zm.85-4.5h-2.89v10.54h3.26c3.07 0 4.32-1.24 4.32-3.13 0-1.04-.57-1.87-1.76-2.34a2.8 2.8 0 001.16-2.25c0-1.55-1.1-2.82-4.09-2.82zm14.13-.16c-2.84 0-5.01 2.11-5.01 5.41 0 3.32 2 5.44 5.04 5.44 1.95 0 3.35-.76 4.22-2.22l-1.52-1.11c-.62 1-1.48 1.57-2.62 1.57-1.94 0-3.02-1.34-3.02-3.7 0-2.2 1.11-3.63 2.83-3.63a2.4 2.4 0 012.35 1.53l1.94-.72c-.64-1.48-1.8-2.56-4.22-2.56zm12.39 9.1v-7.32h1.14c2.53 0 3.75 1.34 3.75 3.65 0 2.1-1.32 3.68-4 3.68h-.9zm1.16-8.94h-3.2v10.54h2.97c3.77 0 6.06-2.25 6.06-5.27 0-3.3-2.13-5.27-5.83-5.27z"/>
        <path fill="#007F46" d="M11.6 41.44h-1.03c-4.53 0-8.2-3.33-8.2-7.45V19.35c0-4.12 3.67-7.46 8.2-7.46h1.03c4.53 0 8.2 3.34 8.2 7.46v14.64c0 4.12-3.67 7.45-8.2 7.45z"/>
        <path fill="#FFFFFE" d="M4.56 33.13l5.21-14.05h2.87l5.17 14.05h-3.68l-.7-2.26H8.68l-.75 2.26H4.56zM9.64 28h2.87l-1.4-4.44L9.64 28z"/>
    </g>
</svg>
