<svg xmlns="http://www.w3.org/2000/svg" width="81" height="43">
    <g fill="none" fill-rule="evenodd">
        <path fill="#FFFFFE" stroke="#D4D4D4" d="M70.04.2H9.08C4.08.2.02 4.25.02 9.24v23.4c0 5 4.06 9.07 9.06 9.07h10.1a10.46 10.46 0 005.35 1.46h1.03c1.97 0 3.8-.54 5.35-1.46h39.13c5 0 9.06-4.07 9.06-9.06V9.26c0-5-4.06-9.07-9.06-9.07z"/>
        <path fill="#F9C623" d="M46.83 14.85H34.2a8.6 8.6 0 011.28 4.5v14.64a8.6 8.6 0 01-1.28 4.5h12.62V14.85z"/>
        <path fill="#E7792B" d="M46.83 38.49h14.53V14.85H46.83z"/>
        <path fill="#DC3E2A" d="M70.04 38.49h-8.68V14.85h8.68a5.84 5.84 0 015.83 5.83v11.98a5.83 5.83 0 01-5.83 5.83z"/>
        <path fill="#007F46" d="M14.6 19.35a8.6 8.6 0 011.28-4.5h-6.8a5.84 5.84 0 00-5.84 5.83v11.97a5.84 5.84 0 005.84 5.84h6.8a8.58 8.58 0 01-1.29-4.5V19.35z"/>
        <path fill="#FFFFFE" fill-opacity=".4" d="M41.31 21.27c-2.83 0-5 2.1-5 5.4 0 3.32 2 5.44 5.04 5.44 1.95 0 3.35-.76 4.22-2.22l-1.52-1.11c-.62 1-1.48 1.57-2.62 1.57-1.94 0-3.02-1.34-3.02-3.7 0-2.2 1.1-3.63 2.83-3.63a2.4 2.4 0 012.35 1.53l1.94-.72c-.64-1.48-1.8-2.56-4.22-2.56zm10.88 9.1v-7.33h1.15c2.52 0 3.75 1.34 3.75 3.65 0 2.1-1.32 3.68-4 3.68h-.9zm1.17-8.95h-3.2v10.54h2.97c3.77 0 6.06-2.25 6.06-5.27 0-3.3-2.13-5.27-5.84-5.27zm18.6 0h-6.7v10.54h6.76v-1.6H67.3v-3.1h3.31v-1.58h-3.3V23h4.65z"/>
        <path fill="#6D6E6D" d="M7.68 6.74v3.22h-1.3V4.32h1.01l2.63 3.32V4.32h1.3v5.64h-1.04zm7.14 2.11a1.08 1.08 0 00.94-.51c.1-.15.16-.33.2-.53.04-.2.06-.4.06-.6V4.32h1.3v2.89a4 4 0 01-.14 1.1c-.1.33-.25.63-.46.88a2.12 2.12 0 01-.78.6c-.31.15-.68.22-1.12.22-.45 0-.83-.08-1.15-.23a2.14 2.14 0 01-.77-.61 2.52 2.52 0 01-.44-.9 4 4 0 01-.14-1.06V4.32h1.3v2.89c0 .21.02.42.07.62.04.2.1.37.2.52.1.15.22.28.37.37.15.09.34.13.56.13zm7.8-3.38H20.9v4.5h-1.3v-4.5h-1.72V4.32h4.74zm.64 4.5V4.31h2.54c.27 0 .51.06.74.17a1.95 1.95 0 01.97 1.05c.1.23.14.46.14.69a1.95 1.95 0 01-.25.96 1.74 1.74 0 01-.67.68l1.29 2.1h-1.47l-1.13-1.83h-.85v1.82h-1.3zM24.56 7h1.2c.15 0 .28-.07.4-.22a.9.9 0 00.16-.56.79.79 0 00-.19-.56c-.13-.13-.27-.2-.41-.2h-1.16V7zm4.1 2.95h1.3V4.32h-1.3zm2.27-1.6h2.45V7.2h-2.45zm6.8-2.38l-.17-.12a3.46 3.46 0 00-.83-.35 1.86 1.86 0 00-.5-.07c-.23 0-.4.04-.52.12a.4.4 0 00-.18.34l.08.24a.7.7 0 00.23.17c.1.05.22.1.36.14l.5.15c.28.07.52.15.74.24.22.08.4.2.55.32.16.13.28.29.36.48.08.18.12.4.12.66 0 .32-.06.59-.18.8a1.51 1.51 0 01-.47.54 2.01 2.01 0 01-.68.3c-.26.06-.52.09-.79.09a4.4 4.4 0 01-1.26-.2 5.1 5.1 0 01-.6-.2 3.27 3.27 0 01-.55-.3l.58-1.14c.02.03.1.08.21.15a4.04 4.04 0 001 .42c.21.06.43.09.64.09.47 0 .7-.14.7-.42a.36.36 0 00-.1-.26.99.99 0 00-.3-.19 3.05 3.05 0 00-.42-.15l-.54-.16a4.72 4.72 0 01-.68-.26 1.84 1.84 0 01-.47-.32 1.15 1.15 0 01-.29-.42 1.57 1.57 0 01-.09-.56 1.68 1.68 0 01.62-1.36 1.97 1.97 0 01.67-.35c.25-.08.51-.12.8-.12.2 0 .4.02.58.05a4.24 4.24 0 011.03.34c.16.08.3.15.42.23l-.57 1.08zm1.18 1.12a2.92 2.92 0 01.71-1.92 2.6 2.6 0 012-.89c.5 0 .95.12 1.32.34.37.23.64.53.82.9l-1 .7a1.2 1.2 0 00-.22-.38 1.27 1.27 0 00-.3-.23 1.12 1.12 0 00-.32-.13 1.56 1.56 0 00-.33-.04 1.16 1.16 0 00-1.02.55 1.71 1.71 0 00-.25.53 2.26 2.26 0 00.01 1.26c.07.2.16.39.28.55.12.15.27.28.44.37.17.1.35.14.56.14a1.34 1.34 0 00.66-.18 1.09 1.09 0 00.49-.6l1.07.63c-.08.2-.2.4-.37.56a2 2 0 01-.55.4 2.83 2.83 0 01-1.33.35c-.4 0-.75-.08-1.08-.25a2.73 2.73 0 01-.84-.66 3.09 3.09 0 01-.55-.94 2.8 2.8 0 01-.2-1.06zM46.8 10c-.4 0-.77-.08-1.1-.25a2.75 2.75 0 01-.85-.64 3 3 0 01.02-3.96 2.7 2.7 0 011.95-.87c.4 0 .77.08 1.1.25a2.9 2.9 0 011.39 1.57 3 3 0 01-.02 2.12 2.91 2.91 0 01-.56.91 2.75 2.75 0 01-.85.63 2.49 2.49 0 01-1.09.24zm-1.36-2.86a2 2 0 00.35 1.18c.11.16.26.28.43.38.17.1.37.14.59.14.23 0 .43-.05.6-.15a1.58 1.58 0 00.67-.94 2.33 2.33 0 000-1.25 1.7 1.7 0 00-.27-.54 1.3 1.3 0 00-.43-.38 1.19 1.19 0 00-.58-.14c-.23 0-.42.05-.6.15-.16.1-.3.23-.42.38-.11.16-.2.34-.26.55-.06.2-.08.4-.08.62zm4.82 2.81V4.32h2.54c.26 0 .5.06.73.17a1.93 1.93 0 01.97 1.05c.1.23.14.46.14.69a2 2 0 01-.25.96 1.7 1.7 0 01-.67.68l1.3 2.1h-1.48l-1.13-1.83h-.85v1.82h-1.3zM51.56 7h1.19c.15 0 .29-.07.4-.22a.9.9 0 00.16-.56.8.8 0 00-.19-.56.56.56 0 00-.41-.2h-1.15V7zm8.06 1.8v1.15h-3.96V4.32h3.89v1.15h-2.6v1.1h2.23v1.05h-2.22v1.2z"/>
        <path fill="#FFFFFE" fill-opacity=".4" d="M7.42 28.35l1.6-4.2 1.55 4.2H7.41zm2.37-6.93H8.37L4 31.96h2.05l.76-2.02h4.34l.75 2.02h2.24L9.79 21.42z"/>
        <path fill="#79BB43" d="M25.56 41.44h-1.03c-4.53 0-8.2-3.33-8.2-7.45V19.35c0-4.12 3.67-7.46 8.2-7.46h1.03c4.53 0 8.2 3.34 8.2 7.46v14.64c0 4.12-3.67 7.45-8.2 7.45z"/>
        <path fill="#FFFFFE" d="M20.75 33.13V19.08h4.33c3.33 0 4.75 1.75 4.75 3.99a3 3 0 01-1.51 2.73 3.14 3.14 0 012.23 3.01c0 2.59-1.62 4.32-5.03 4.32h-4.76zm3.35-8.33h.64c.95 0 1.64-.39 1.64-1.46 0-1.08-.69-1.39-1.64-1.39h-.63v2.85zm0 2.63v2.83h1.27c.97 0 1.74-.39 1.74-1.45 0-1.04-.84-1.38-1.91-1.38h-1.1z"/>
    </g>
</svg>
