<svg xmlns="http://www.w3.org/2000/svg" width="81" height="43">
    <g fill="none" fill-rule="evenodd">
        <path fill="#FFFFFE" stroke="#D4D4D4" d="M70.92.57H9.96C4.96.57.9 4.65.9 9.64v23.4c0 5 4.07 9.06 9.06 9.06h24.6a10.45 10.45 0 005.35 1.46h1.03c1.97 0 3.8-.54 5.35-1.46h24.63c5 0 9.06-4.06 9.06-9.06V9.64c0-5-4.06-9.06-9.06-9.06z"/>
        <path fill="#DC3E2A" d="M70.92 38.87h-8.68V15.23h8.68a5.84 5.84 0 015.84 5.83v11.98a5.83 5.83 0 01-5.84 5.83z"/>
        <path fill="#007F46" d="M9.96 38.87h8.68V15.23H9.96a5.84 5.84 0 00-5.83 5.83v11.98a5.83 5.83 0 005.83 5.83z"/>
        <path fill="#FFFFFE" fill-opacity=".4" d="M72.84 21.8h-6.69v10.54h6.76v-1.59h-4.72v-3.1h3.3v-1.59h-3.3V23.4h4.65z"/>
        <path fill="#6D6E6D" d="M8.56 7.12v3.23h-1.3V4.7h1.02L10.9 8V4.7h1.3v5.64h-1.05zm7.14 2.11c.23 0 .41-.04.57-.13.15-.1.28-.22.37-.37.1-.16.16-.33.2-.53.04-.2.06-.4.06-.61V4.7h1.3v2.88c0 .4-.04.76-.14 1.1-.1.34-.25.63-.45.89a2.15 2.15 0 01-.78.6c-.32.14-.7.21-1.13.21-.45 0-.83-.07-1.15-.23a2.15 2.15 0 01-.77-.61 2.52 2.52 0 01-.44-.9 4.09 4.09 0 01-.14-1.06V4.71h1.3v2.88a2.5 2.5 0 00.27 1.14c.1.16.22.28.37.37.15.09.34.13.56.13zm7.8-3.38h-1.7v4.5h-1.3v-4.5h-1.73V4.71h4.74zm.65 4.5V4.7h2.54c.26 0 .5.05.73.16a2.03 2.03 0 011.1 1.74 2 2 0 01-.24.97 1.76 1.76 0 01-.67.67l1.3 2.1h-1.48L26.3 8.53h-.85v1.82h-1.3zm1.3-2.96h1.19c.15 0 .29-.07.4-.22a.89.89 0 00.16-.56.79.79 0 00-.19-.55.52.52 0 00-.41-.2h-1.15v1.53zm4.1 2.96h1.3V4.7h-1.3zm2.27-1.62h2.45V7.6h-2.45zm6.8-2.37l-.18-.12a3.42 3.42 0 00-.82-.35 1.84 1.84 0 00-.51-.07.9.9 0 00-.51.12.4.4 0 00-.18.35l.08.24a.7.7 0 00.22.17c.1.05.22.1.37.14l.5.14c.27.07.52.15.73.24.22.09.4.2.56.33.15.13.27.28.35.47.09.18.13.4.13.67 0 .31-.06.58-.18.8-.12.22-.28.4-.48.53a2.01 2.01 0 01-.68.3c-.25.06-.52.09-.79.09a4.42 4.42 0 01-1.26-.19 5.15 5.15 0 01-.6-.22 3.23 3.23 0 01-.54-.29l.57-1.14.21.16.43.22c.17.07.36.14.58.2.2.06.42.08.64.08.46 0 .69-.14.69-.42a.36.36 0 00-.1-.26 1.03 1.03 0 00-.29-.19 3.08 3.08 0 00-.43-.15l-.54-.16a4.63 4.63 0 01-.67-.26 1.79 1.79 0 01-.48-.32 1.14 1.14 0 01-.28-.42 1.53 1.53 0 01-.1-.56 1.69 1.69 0 01.63-1.36c.19-.15.4-.27.66-.35a2.65 2.65 0 011.38-.07 4.21 4.21 0 011.04.35c.15.07.29.14.41.22l-.56 1.08zm1.17 1.12c0-.34.06-.68.19-1.01a2.7 2.7 0 011.38-1.55 2.6 2.6 0 011.15-.24c.5 0 .94.11 1.3.34.38.23.66.52.84.89l-1 .7a1.18 1.18 0 00-.52-.61 1.12 1.12 0 00-.33-.13 1.56 1.56 0 00-.32-.03 1.24 1.24 0 00-1.03.54 1.74 1.74 0 00-.25.54 2.07 2.07 0 00.3 1.8c.12.16.26.28.43.38.17.09.36.13.56.13a1.3 1.3 0 00.66-.17 1.1 1.1 0 00.5-.6l1.07.62a1.72 1.72 0 01-.37.56 2.34 2.34 0 01-.55.41 2.9 2.9 0 01-1.34.34 2.32 2.32 0 01-1.07-.25 2.75 2.75 0 01-.85-.66 3.1 3.1 0 01-.55-.94 2.97 2.97 0 01-.2-1.06zm7.9 2.91c-.4 0-.77-.08-1.1-.24a2.76 2.76 0 01-.85-.65 3 3 0 01-.54-3.05 2.92 2.92 0 011.43-1.54 2.5 2.5 0 011.08-.23c.4 0 .77.08 1.1.24A2.86 2.86 0 0150.2 6.5a3 3 0 01-.58 3.03 2.73 2.73 0 01-.85.64 2.48 2.48 0 01-1.08.23zm-1.36-2.86a1.93 1.93 0 00.35 1.18c.12.16.26.29.43.38.17.1.37.14.6.14.22 0 .42-.05.59-.15.17-.1.3-.23.42-.39s.2-.34.26-.55a2.37 2.37 0 00-.01-1.25 1.73 1.73 0 00-.27-.54 1.33 1.33 0 00-.43-.38 1.2 1.2 0 00-.58-.14c-.22 0-.42.05-.6.15a1.55 1.55 0 00-.68.93c-.05.2-.08.41-.08.63zm4.82 2.82V4.7h2.54c.27 0 .51.05.74.16a2.03 2.03 0 011.1 1.74 2 2 0 01-.24.97 1.73 1.73 0 01-.68.67l1.3 2.1h-1.47L53.3 8.53h-.85v1.82h-1.3zm1.3-2.96h1.2c.15 0 .28-.07.39-.22a.89.89 0 00.17-.56.79.79 0 00-.2-.55.52.52 0 00-.4-.2h-1.16v1.53zm8.06 1.81v1.15h-3.96V4.7h3.9v1.14h-2.6v1.1h2.23V8h-2.23v1.2z"/>
        <path fill="#79BB43" d="M29.97 19.73a8.6 8.6 0 011.29-4.5H18.64v23.64h12.62a8.6 8.6 0 01-1.29-4.5V19.73z"/>
        <path fill="#E7792B" d="M62.24 15.23H49.59a8.6 8.6 0 011.28 4.5v14.64a8.6 8.6 0 01-1.28 4.5h12.65V15.23z"/>
        <path fill="#FFFFFE" fill-opacity=".4" d="M23.05 30.75v-2.98h1c1.86.02 2.47.57 2.47 1.44 0 1.08-.8 1.54-2.34 1.54h-1.13zm0-4.44v-2.92h.6c1.61 0 2.26.47 2.26 1.42 0 .87-.62 1.47-1.92 1.48l-.94.02zm.86-4.51h-2.89v10.54h3.26c3.07 0 4.32-1.24 4.32-3.13 0-1.04-.57-1.87-1.76-2.34A2.8 2.8 0 0028 24.63c0-1.56-1.1-2.83-4.09-2.83zm30.34 8.95v-7.33h1.15c2.52 0 3.75 1.34 3.75 3.65 0 2.1-1.32 3.68-4 3.68h-.9zm1.16-8.95h-3.2v10.54h2.98c3.76 0 6.05-2.25 6.05-5.27 0-3.3-2.13-5.27-5.83-5.27zM10 28.73l1.6-4.2 1.55 4.2H10zm2.37-6.93h-1.42L6.58 32.34h2.05l.76-2.02h4.34l.75 2.02h2.24L12.37 21.8z"/>
        <path fill="#F9C623" d="M40.94 41.83H39.9c-4.53 0-8.2-3.34-8.2-7.46V19.73c0-4.12 3.67-7.46 8.2-7.46h1.03c4.53 0 8.2 3.34 8.2 7.46v14.64c0 4.12-3.67 7.46-8.2 7.46z"/>
        <path fill="#FFFFFE" d="M34.3 26.57c0-4.48 2.8-7.25 6.56-7.25 3.28 0 4.67 1.73 5.46 3.57l-3.4 1.28c-.4-.96-1.04-1.65-2.22-1.65-1.77 0-2.7 1.59-2.7 4.03 0 2.71.97 4.04 2.97 4.04 1.18 0 2.1-.7 2.77-1.7l2.62 1.98a6.26 6.26 0 01-5.5 2.91c-3.99 0-6.55-2.79-6.55-7.2z"/>
    </g>
</svg>
