<svg xmlns="http://www.w3.org/2000/svg" width="81" height="43">
    <g fill="none" fill-rule="evenodd">
        <path fill="#FFFFFE" stroke="#D4D4D4" d="M70.66.19H9.7C4.7.19.64 4.26.64 9.26v23.4c0 5 4.06 9.06 9.06 9.06h39.11a10.45 10.45 0 005.35 1.46h1.03c1.97 0 3.8-.54 5.35-1.46h10.12c5 0 9.06-4.07 9.06-9.06V9.26c0-5-4.06-9.07-9.06-9.07z"/>
        <path fill="#DC3E2A" d="M70.66 14.85h-6.82a8.6 8.6 0 011.28 4.5v14.64a8.6 8.6 0 01-1.28 4.5h6.82a5.83 5.83 0 005.83-5.84V20.68a5.83 5.83 0 00-5.83-5.83z"/>
        <path fill="#007F46" d="M9.7 38.49h8.68V14.84H9.7a5.83 5.83 0 00-5.83 5.84v11.97A5.83 5.83 0 009.7 38.5z"/>
        <path fill="#FFFFFE" fill-opacity=".4" d="M73.9 21.42h-6.7v10.54h6.76v-1.6h-4.72v-3.1h3.3v-1.58h-3.3V23h4.66z"/>
        <path fill="#6D6E6D" d="M8.3 6.74v3.22H7V4.32h1.02l2.63 3.32V4.32h1.3v5.64H10.9zm7.14 2.11a1.06 1.06 0 00.94-.5c.1-.16.16-.34.2-.54.04-.2.06-.4.06-.6V4.32h1.3v2.89c0 .39-.05.75-.14 1.1-.1.33-.25.63-.46.88a2.1 2.1 0 01-.77.6c-.32.15-.7.22-1.13.22-.45 0-.83-.08-1.15-.23a2.14 2.14 0 01-.77-.62 2.53 2.53 0 01-.44-.89 4.04 4.04 0 01-.14-1.06V4.32h1.3v2.89c0 .21.02.42.07.62.04.2.1.37.2.52a1.06 1.06 0 00.93.5zm7.8-3.38h-1.71v4.5h-1.3v-4.5H18.5V4.32h4.74zm.65 4.5V4.31h2.54c.26 0 .5.06.73.17a1.95 1.95 0 01.97 1.05c.1.23.14.46.14.69a1.98 1.98 0 01-.25.96 1.8 1.8 0 01-.67.68l1.3 2.1h-1.48l-1.13-1.83h-.85v1.82h-1.3zM25.19 7h1.19c.15 0 .29-.07.4-.22a.9.9 0 00.16-.56.8.8 0 00-.19-.56.56.56 0 00-.41-.2h-1.15V7zm4.1 2.95h1.3V4.32h-1.3zm2.27-1.61H34V7.21h-2.44zm6.8-2.37l-.18-.12a3.31 3.31 0 00-.83-.35 1.9 1.9 0 00-.5-.07c-.23 0-.4.04-.52.12a.39.39 0 00-.17.34l.08.24a.7.7 0 00.22.17c.1.05.22.1.37.14l.5.15c.27.07.52.15.73.24.22.09.4.2.56.32.15.13.27.29.35.48.08.18.12.4.12.66 0 .32-.06.59-.17.8-.12.23-.28.4-.48.54a2 2 0 01-.68.3c-.25.06-.52.09-.79.09a4.42 4.42 0 01-1.26-.2 5.04 5.04 0 01-.6-.21 3.2 3.2 0 01-.54-.3l.57-1.13.21.15a4.2 4.2 0 001 .42c.22.06.43.09.65.09.46 0 .69-.14.69-.42a.36.36 0 00-.1-.26 1 1 0 00-.3-.19 3.1 3.1 0 00-.42-.15l-.54-.16a4.86 4.86 0 01-.67-.26 2 2 0 01-.48-.32 1.15 1.15 0 01-.28-.42 1.54 1.54 0 01-.1-.56 1.67 1.67 0 01.62-1.36c.2-.16.42-.28.67-.36a2.68 2.68 0 011.38-.06c.2.04.38.09.55.14a4.7 4.7 0 01.9.43l-.56 1.08zm1.17 1.12c0-.34.06-.68.18-1.02a2.71 2.71 0 011.39-1.54 2.6 2.6 0 011.15-.25c.5 0 .94.12 1.3.34.38.23.65.53.83.9l-1 .7a1.17 1.17 0 00-.84-.74 1.63 1.63 0 00-.32-.04c-.24 0-.44.05-.6.15-.18.1-.32.23-.43.4-.11.15-.2.33-.25.53a2.31 2.31 0 00-.08.61 2.07 2.07 0 00.37 1.2c.12.15.27.28.44.37.17.1.35.14.56.14.1 0 .22-.01.33-.04a1.28 1.28 0 00.33-.14 1.1 1.1 0 00.5-.6l1.06.63a1.72 1.72 0 01-.37.56c-.15.16-.34.3-.54.4a2.93 2.93 0 01-1.34.35c-.4 0-.75-.08-1.08-.25a2.73 2.73 0 01-.84-.66 3.11 3.11 0 01-.55-.94 2.99 2.99 0 01-.2-1.06zm7.9 2.9c-.4 0-.77-.07-1.1-.24a2.76 2.76 0 01-.85-.64 2.9 2.9 0 01-.54-.92 2.92 2.92 0 011.43-3.67c.33-.16.69-.24 1.08-.24.4 0 .77.08 1.1.25a2.77 2.77 0 011.39 1.57 3.02 3.02 0 01-.02 2.12c-.13.35-.32.65-.56.91a2.74 2.74 0 01-.85.63c-.33.16-.7.24-1.08.24zm-1.36-2.85a2 2 0 00.35 1.18c.12.16.26.28.43.38.17.1.37.14.6.14.22 0 .42-.05.59-.15a1.4 1.4 0 00.42-.4c.12-.16.2-.34.26-.54a2.17 2.17 0 000-1.25 1.7 1.7 0 00-.28-.54 1.29 1.29 0 00-.43-.38 1.18 1.18 0 00-.58-.14 1.21 1.21 0 00-1.02.53c-.11.16-.2.34-.25.55a2.27 2.27 0 00-.1.62zm4.82 2.81V4.32h2.54c.26 0 .51.06.73.17a1.95 1.95 0 01.97 1.05c.1.23.14.46.14.69a1.98 1.98 0 01-.24.96 1.8 1.8 0 01-.68.68l1.3 2.1h-1.47l-1.14-1.83h-.85v1.82h-1.3zM52.19 7h1.2c.15 0 .28-.07.39-.22a.9.9 0 00.17-.56.8.8 0 00-.2-.56.55.55 0 00-.4-.2h-1.16V7zm8.06 1.8v1.15H56.3V4.32h3.9v1.15h-2.6v1.1h2.23v1.05H57.6v1.2z"/>
        <path fill="#79BB43" d="M18.38 38.49h14.54V14.84H18.38z"/>
        <path fill="#F9C623" d="M44.23 19.35a8.6 8.6 0 011.28-4.5H32.9v23.64h12.6a8.6 8.6 0 01-1.28-4.5V19.35z"/>
        <path fill="#FFFFFE" fill-opacity=".4" d="M9.74 28.35l1.6-4.2 1.55 4.2H9.74zm2.37-6.93h-1.42L6.32 31.96h2.05l.76-2.02h4.34l.75 2.02h2.24l-4.35-10.54zm11.88 8.95v-2.98h1c1.86.01 2.46.56 2.46 1.43 0 1.09-.8 1.55-2.34 1.55H24zm0-4.45V23h.6c1.6 0 2.26.48 2.26 1.42 0 .88-.62 1.47-1.93 1.49l-.93.01zm.85-4.5h-2.89v10.54h3.26c3.07 0 4.32-1.24 4.32-3.14 0-1.03-.57-1.86-1.76-2.33a2.8 2.8 0 001.16-2.25c0-1.56-1.1-2.82-4.09-2.82zm14.12-.16c-2.83 0-5 2.11-5 5.41 0 3.32 2 5.44 5.03 5.44 1.96 0 3.35-.76 4.23-2.21l-1.53-1.12c-.62 1-1.48 1.57-2.62 1.57-1.94 0-3.02-1.34-3.02-3.7 0-2.2 1.11-3.63 2.83-3.63a2.4 2.4 0 012.35 1.53l1.94-.72c-.64-1.48-1.8-2.56-4.21-2.56z"/>
        <path fill="#E7792B" d="M55.19 41.44h-1.03c-4.53 0-8.2-3.33-8.2-7.45V19.35c0-4.12 3.67-7.46 8.2-7.46h1.03c4.53 0 8.2 3.34 8.2 7.46v14.64c0 4.12-3.67 7.45-8.2 7.45z"/>
        <path fill="#FFFFFE" d="M49.14 33.54V19.49h4.8c4.57 0 7.34 2.58 7.34 7.02 0 3.95-2.95 7.03-7.68 7.03h-4.46zm4.4-2.87c2.91 0 4.05-1.94 4.05-4.16 0-2.52-1.01-4.1-3.66-4.1H52.7v8.25h.83z"/>
    </g>
</svg>
