<svg xmlns="http://www.w3.org/2000/svg" width="81" height="43">
    <g fill="none" fill-rule="evenodd">
        <path fill="#FFFFFE" stroke="#D4D4D4" d="M79.08 9.56c0-5-4.06-9.06-9.06-9.06H9.06C4.06.5 0 4.57 0 9.56v23.4c0 5 4.07 9.07 9.06 9.07h53.7a10.45 10.45 0 005.36 1.45h1.03c5.47 0 9.93-4.12 9.93-9.18V9.56z"/>
        <path fill="#007F46" d="M9.06 38.8h8.68V15.15H9.06A5.83 5.83 0 003.23 21v11.97a5.83 5.83 0 005.83 5.84z"/>
        <path fill="#6D6E6D" d="M7.67 7.05v3.22h-1.3V4.63h1l2.64 3.31v-3.3h1.3v5.63h-1.05zm7.13 2.11c.23 0 .41-.05.57-.14.15-.1.28-.21.37-.37.1-.15.16-.33.2-.53.04-.2.06-.4.06-.6V4.63h1.3v2.89c0 .39-.04.75-.14 1.1-.1.33-.25.63-.45.88a2.11 2.11 0 01-.78.6c-.32.15-.7.22-1.12.22a2.7 2.7 0 01-1.16-.23 2.15 2.15 0 01-.77-.62 2.52 2.52 0 01-.44-.89 4 4 0 01-.14-1.06V4.63h1.3v2.89c0 .21.03.42.07.62.04.2.11.36.2.52a1.08 1.08 0 00.93.5zm7.8-3.38h-1.7v4.5h-1.3v-4.5h-1.73V4.63h4.74zm.65 4.5V4.62h2.54c.26 0 .5.06.73.17a1.93 1.93 0 01.97 1.05c.1.23.14.46.14.69a1.98 1.98 0 01-.24.96 1.8 1.8 0 01-.3.39 1.75 1.75 0 01-.38.28l1.3 2.1h-1.47L25.4 8.45h-.85v1.82h-1.3zm1.3-2.96h1.2c.14 0 .28-.08.39-.22a.9.9 0 00.16-.56.8.8 0 00-.19-.56.52.52 0 00-.4-.2h-1.16v1.54zm4.1 2.95h1.3V4.63h-1.3zm2.27-1.61h2.45V7.5h-2.45zm6.8-2.38l-.18-.11a3.22 3.22 0 00-.35-.19 3.75 3.75 0 00-.47-.16 1.9 1.9 0 00-.51-.07.9.9 0 00-.51.12.39.39 0 00-.18.34l.08.24a.7.7 0 00.22.17c.1.05.22.1.37.14l.5.14c.27.08.52.16.73.25.22.08.4.2.56.32.15.13.27.29.35.47.08.19.13.41.13.67a1.55 1.55 0 01-.65 1.34 2.01 2.01 0 01-.68.3c-.26.05-.52.08-.8.08a4.7 4.7 0 01-1.26-.18 5.1 5.1 0 01-.6-.22 3.2 3.2 0 01-.54-.3l.57-1.13a2.95 2.95 0 00.64.37 3.56 3.56 0 001.22.29c.46 0 .69-.14.69-.42a.36.36 0 00-.1-.26 1.01 1.01 0 00-.29-.19 3.16 3.16 0 00-.43-.15l-.54-.16a4.8 4.8 0 01-.67-.26c-.2-.1-.35-.2-.48-.32s-.22-.27-.28-.42a1.53 1.53 0 01-.1-.56 1.7 1.7 0 01.62-1.36 2 2 0 01.67-.36 3.07 3.07 0 011.93.08 4.92 4.92 0 01.9.42l-.56 1.08zm1.17 1.12c0-.33.06-.67.19-1a2.8 2.8 0 01.53-.91 2.6 2.6 0 012-.89c.5 0 .94.12 1.31.34.37.23.65.53.83.9l-1 .7a1.15 1.15 0 00-.52-.62 1.12 1.12 0 00-.33-.12 1.64 1.64 0 00-.32-.04 1.24 1.24 0 00-1.03.54c-.1.16-.2.34-.25.54a2.27 2.27 0 00-.08.61 2.07 2.07 0 00.38 1.2c.12.15.26.28.43.37.17.1.36.14.56.14a1.3 1.3 0 00.66-.18 1.1 1.1 0 00.5-.6l1.07.63a1.7 1.7 0 01-.37.56c-.16.16-.35.3-.55.4a2.89 2.89 0 01-1.34.35c-.39 0-.75-.08-1.07-.25a2.75 2.75 0 01-.85-.66 3.13 3.13 0 01-.55-.94 2.97 2.97 0 01-.2-1.07zm7.9 2.92a2.43 2.43 0 01-1.1-.25 2.77 2.77 0 01-.84-.64 2.94 2.94 0 01-.55-.92 2.9 2.9 0 011.43-3.67c.33-.16.69-.24 1.08-.24.4 0 .77.08 1.1.25a2.77 2.77 0 011.39 1.57 3 3 0 01-.58 3.03 2.73 2.73 0 01-.85.63c-.33.16-.7.24-1.08.24zm-1.36-2.86c0 .22.03.43.09.63s.15.39.26.54a1.2 1.2 0 001.02.53 1.16 1.16 0 001.02-.55c.12-.16.2-.34.26-.54a2.2 2.2 0 000-1.25 1.67 1.67 0 00-.28-.55 1.31 1.31 0 00-.42-.37 1.19 1.19 0 00-.58-.14c-.23 0-.43.05-.6.15-.17.1-.31.22-.43.38-.1.16-.2.34-.25.55a2.23 2.23 0 00-.1.62zm4.82 2.81V4.63h2.54c.27 0 .51.06.74.17a2.02 2.02 0 011.1 1.74 1.99 1.99 0 01-.24.96 1.8 1.8 0 01-.3.39 1.75 1.75 0 01-.38.28l1.3 2.1h-1.47L52.4 8.45h-.85v1.82h-1.3zm1.3-2.95h1.2c.15 0 .28-.08.4-.22a.9.9 0 00.16-.56.8.8 0 00-.2-.56.52.52 0 00-.4-.2h-1.16v1.54zm8.06 1.8v1.15h-3.96V4.63h3.9v1.15h-2.6v1.1h2.23v1.05h-2.23v1.2z"/>
        <path fill="#79BB43" d="M17.74 38.8h14.54V15.15H17.74z"/>
        <path fill="#F9C623" d="M32.28 38.8H46.8V15.15H32.28z"/>
        <path fill="#E7792B" d="M58.18 19.66a8.6 8.6 0 011.29-4.5H46.8V38.8h12.66a8.58 8.58 0 01-1.29-4.5V19.66z"/>
        <path fill="#FFFFFE" fill-opacity=".4" d="M50.28 30.68v-7.34h1.14c2.53 0 3.75 1.35 3.75 3.66 0 2.1-1.32 3.68-4 3.68h-.9zm1.16-8.95h-3.2v10.54h2.97c3.77 0 6.06-2.25 6.06-5.27 0-3.3-2.13-5.27-5.83-5.27zM9.1 28.66l1.6-4.2 1.55 4.2H9.1zm2.37-6.93h-1.42L5.68 32.27h2.05l.77-2.02h4.33l.75 2.02h2.24l-4.35-10.54zm11.88 8.95V27.7h1c1.86.01 2.46.56 2.46 1.43 0 1.09-.8 1.55-2.33 1.55h-1.13zm0-4.45v-2.92h.6c1.6 0 2.26.48 2.26 1.42 0 .88-.62 1.47-1.93 1.49l-.93.01zm.85-4.5h-2.89v10.54h3.26c3.07 0 4.32-1.24 4.32-3.14 0-1.04-.57-1.86-1.76-2.33a2.8 2.8 0 001.16-2.25c0-1.56-1.1-2.82-4.08-2.82zm15.59-.16c-2.83 0-5.01 2.11-5.01 5.41 0 3.31 2 5.44 5.04 5.44 1.95 0 3.35-.77 4.22-2.22l-1.52-1.11c-.62 1-1.48 1.57-2.62 1.57-1.94 0-3.02-1.34-3.02-3.7 0-2.2 1.11-3.63 2.83-3.63a2.4 2.4 0 012.35 1.53l1.94-.72c-.64-1.48-1.8-2.57-4.21-2.57z"/>
        <path fill="#DC3E2A" d="M69.15 41.75h-1.03c-4.53 0-8.2-3.34-8.2-7.45V19.66c0-4.12 3.67-7.46 8.2-7.46h1.03c4.53 0 8.2 3.34 8.2 7.46V34.3c0 4.11-3.67 7.45-8.2 7.45z"/>
        <path fill="#FFFFFE" d="M64.31 33.85V19.8h9.15v2.87h-5.58v2.46h3.85v2.9h-3.85v2.94h5.7v2.88z"/>
    </g>
</svg>
